<svg xmlns="http://www.w3.org/2000/svg" version="1.1" xmlns:xlink="http://www.w3.org/1999/xlink" xmlns:svgjs="http://svgjs.dev/svgjs" width="128" height="128" viewBox="0 0 128 128"><g transform="matrix(0.8046875,0,0,0.8046875,12.491302274015823,9.958606291118414)"><svg viewBox="0 0 90 95" data-background-color="#096a2e" preserveAspectRatio="xMidYMid meet" height="135" width="128" xmlns="http://www.w3.org/2000/svg" xmlns:xlink="http://www.w3.org/1999/xlink"><g id="tight-bounds" transform="matrix(1,0,0,1,0.007599954743454873,-0.24049999999999727)"><svg viewBox="0 0 89.98480009051309 95.481" height="95.481" width="89.98480009051309"><g><svg viewBox="0 0 89.98480009051309 95.481" height="95.481" width="89.98480009051309"><g><svg viewBox="0 0 89.98480009051309 95.481" height="95.481" width="89.98480009051309"><g id="textblocktransform"><svg viewBox="0 0 89.98480009051309 95.481" height="95.481" width="89.98480009051309" id="textblock"><g><svg viewBox="0 0 89.98480009051309 95.481" height="95.481" width="89.98480009051309"><g><svg viewBox="0 0 89.98480009051309 95.481" height="95.481" width="89.98480009051309"><g><svg xmlns="http://www.w3.org/2000/svg" xmlns:xlink="http://www.w3.org/1999/xlink" version="1.1" x="0" y="0" viewBox="5.021973112263308 0.9870000000000001 92.37104985569339 98.013" enable-background="new 0 0 100 100" xml:space="preserve" height="95.481" width="89.98480009051309" class="icon-icon-0" data-fill-palette-color="accent" id="icon-0"><path d="M97.393 37.15c-0.004-0.736-0.301-1.44-0.827-1.954-8.246-8.075-19.047-12.521-30.597-12.521-4.112 0-7.969 0.574-11.969 1.691V3.741c0-1.521-0.979-2.754-2.5-2.754S49 2.219 49 3.741v20.556c-5-1.069-8.144-1.619-12.165-1.619-11.559 0-22.646 4.454-30.898 12.542-0.525 0.515-0.912 1.219-0.915 1.955-0.003 0.736 0.245 1.443 0.766 1.962l9.041 9.035c-4.715 7.01-7.445 15.711-7.534 24.242-0.008 0.735 0.274 1.346 0.791 1.867C8.604 74.805 9.303 75 10.038 75H22.82c1.594 8 5.433 16.225 11.69 22.609C35.025 98.135 35.728 99 36.463 99c0.005 0 0.01 0 0.015 0 0.729 0 1.43-0.756 1.946-1.271l12.744-12.957L63.909 97.84c0.517 0.516 1.216 1.16 1.945 1.16 0.005 0 0.011 0 0.015 0 0.734 0 1.438-0.871 1.951-1.396C74.078 91.221 77.915 83 79.509 75h12.782c0.735 0 1.439-0.195 1.957-0.719 0.518-0.521 0.805-1.18 0.797-1.915-0.086-8.518-2.805-17.196-7.523-24.22l9.064-9.047C97.105 38.58 97.396 37.885 97.393 37.15zM81.977 45.925c-0.975 0.975-1.079 2.676-0.243 3.773C86.058 55.373 88.784 62 89.403 70H77.167c-1.377 0-2.544 0.861-2.729 2.227-0.998 7.328-3.84 13.576-8.667 19.18L53.111 78.737c-1.073-1.074-2.815-1.091-3.891-0.02L36.561 91.349c-4.827-5.604-7.671-11.784-8.67-19.117C27.706 70.866 26.54 70 25.163 70H12.926c0.621-8 3.347-14.639 7.671-20.3 0.838-1.097 0.733-2.724-0.245-3.7l-8.677-8.688c6.925-5.88 15.986-9.106 25.159-9.106 4.038 0 7.165 0.608 12.165 1.838v13.134c0 1.521 0.979 2.754 2.5 2.754s2.5-1.233 2.5-2.754V30.119c4-1.285 7.84-1.936 11.969-1.936 9.166 0 17.814 3.202 24.734 9.071L81.977 45.925z" fill="#000000" data-fill-palette-color="accent"></path></svg></g></svg></g></svg></g></svg></g></svg></g></svg></g><defs></defs></svg><rect width="89.98480009051309" height="95.481" fill="none" stroke="none" visibility="hidden"></rect></g></svg></g></svg>