<svg xmlns="http://www.w3.org/2000/svg" version="1.1" xmlns:xlink="http://www.w3.org/1999/xlink" xmlns:svgjs="http://svgjs.dev/svgjs" width="1500" height="1500" viewBox="0 0 1500 1500"><g transform="matrix(1,0,0,1,0,0.0012298478617367437)"><svg viewBox="0 0 280 280" data-background-color="#096a2e" preserveAspectRatio="xMidYMid meet" height="1500" width="1500" xmlns="http://www.w3.org/2000/svg" xmlns:xlink="http://www.w3.org/1999/xlink"><g id="tight-bounds" transform="matrix(1,0,0,1,0,0.00022957160081205075)"><svg viewBox="0 0 280 280" height="280" width="280"><g><svg viewBox="0 0 280 280" height="280" width="280"><g><svg viewBox="0 0 280 280" height="280" width="280"><g id="textblocktransform"><svg viewBox="0 0 280 280" height="280" width="280" id="textblock"><g><svg viewBox="0 0 280 280" height="280" width="280"><g transform="matrix(1,0,0,1,77.80235000554754,74.00336708925556)"><svg viewBox="0 0 124.39529998890492 131.99326582148888" height="131.99326582148888" width="124.39529998890492"><g id="icon-0"><svg xmlns="http://www.w3.org/2000/svg" xmlns:xlink="http://www.w3.org/1999/xlink" version="1.1" x="0" y="0" viewBox="5.021973112263308 0.9870000000000001 92.37104985569339 98.013" enable-background="new 0 0 100 100" xml:space="preserve" height="131.99326582148888" width="124.39529998890492" class="icon-xg-0" data-fill-palette-color="accent" id="xg-0"><path d="M97.393 37.15c-0.004-0.736-0.301-1.44-0.827-1.954-8.246-8.075-19.047-12.521-30.597-12.521-4.112 0-7.969 0.574-11.969 1.691V3.741c0-1.521-0.979-2.754-2.5-2.754S49 2.219 49 3.741v20.556c-5-1.069-8.144-1.619-12.165-1.619-11.559 0-22.646 4.454-30.898 12.542-0.525 0.515-0.912 1.219-0.915 1.955-0.003 0.736 0.245 1.443 0.766 1.962l9.041 9.035c-4.715 7.01-7.445 15.711-7.534 24.242-0.008 0.735 0.274 1.346 0.791 1.867C8.604 74.805 9.303 75 10.038 75H22.82c1.594 8 5.433 16.225 11.69 22.609C35.025 98.135 35.728 99 36.463 99c0.005 0 0.01 0 0.015 0 0.729 0 1.43-0.756 1.946-1.271l12.744-12.957L63.909 97.84c0.517 0.516 1.216 1.16 1.945 1.16 0.005 0 0.011 0 0.015 0 0.734 0 1.438-0.871 1.951-1.396C74.078 91.221 77.915 83 79.509 75h12.782c0.735 0 1.439-0.195 1.957-0.719 0.518-0.521 0.805-1.18 0.797-1.915-0.086-8.518-2.805-17.196-7.523-24.22l9.064-9.047C97.105 38.58 97.396 37.885 97.393 37.15zM81.977 45.925c-0.975 0.975-1.079 2.676-0.243 3.773C86.058 55.373 88.784 62 89.403 70H77.167c-1.377 0-2.544 0.861-2.729 2.227-0.998 7.328-3.84 13.576-8.667 19.18L53.111 78.737c-1.073-1.074-2.815-1.091-3.891-0.02L36.561 91.349c-4.827-5.604-7.671-11.784-8.67-19.117C27.706 70.866 26.54 70 25.163 70H12.926c0.621-8 3.347-14.639 7.671-20.3 0.838-1.097 0.733-2.724-0.245-3.7l-8.677-8.688c6.925-5.88 15.986-9.106 25.159-9.106 4.038 0 7.165 0.608 12.165 1.838v13.134c0 1.521 0.979 2.754 2.5 2.754s2.5-1.233 2.5-2.754V30.119c4-1.285 7.84-1.936 11.969-1.936 9.166 0 17.814 3.202 24.734 9.071L81.977 45.925z" fill="#8abe53" data-fill-palette-color="accent"></path></svg></g></svg></g><g id="text-0"><path d="M5.69 90.785v0c0.785-2.059 1.858-3.77 3.218-5.132 1.358-1.356 2.846-2.307 4.465-2.851 1.616-0.538 3.279-0.788 4.988-0.749 1.712 0.033 3.386 0.361 5.022 0.985v0c3.789 1.445 6.532 3.855 8.231 7.232 1.707 3.373 1.859 6.898 0.457 10.574v0c-0.78 2.047-1.853 3.747-3.217 5.101-1.36 1.363-2.849 2.313-4.465 2.851-1.618 0.544-3.276 0.799-4.973 0.765-1.697-0.034-3.354-0.36-4.972-0.976v0c-2.42-0.923-4.46-2.31-6.12-4.161-1.656-1.843-2.738-3.976-3.246-6.401-0.508-2.424-0.304-4.837 0.612-7.238zM30.321 100.22v0c0.754-1.978 0.818-3.874 0.191-5.688-0.618-1.818-1.687-3.358-3.207-4.622-1.512-1.268-3.341-2.311-5.488-3.13v0c-2.041-0.778-3.982-1.173-5.823-1.183-1.839-0.017-3.539 0.461-5.099 1.433-1.561 0.973-2.722 2.457-3.484 4.454v0c-1.098 2.88-0.881 5.468 0.653 7.763 1.533 2.295 3.877 4.044 7.031 5.247v0c2.165 0.825 4.227 1.277 6.186 1.353 1.961 0.071 3.772-0.361 5.432-1.295 1.66-0.935 2.863-2.379 3.608-4.332z" fill="#c9efc7" data-fill-palette-color="primary"></path><path d="M30.75 63.877v0l2.78 2.103c-0.509-1.064-0.817-2.257-0.923-3.579-0.11-1.317 0.099-2.338 0.629-3.065v0c0.412-0.565 0.839-1.02 1.281-1.365v0c0.343 0.028 0.705 0.181 1.087 0.459v0c0.602 0.44 1.11 1.004 1.522 1.692v0c-0.656 0.527-1.202 1.088-1.638 1.686v0c-1.091 1.495-1.262 3.254-0.513 5.276v0l4.734 3.542 4.123 3.009 2.617-2.739c0.341 0.142 0.707 0.409 1.097 0.801v0c-0.895 1.102-1.881 2.39-2.956 3.864v0c-0.809 1.108-1.753 2.442-2.835 4.002v0c-0.423-0.144-0.778-0.403-1.065-0.777v0l1.28-2.38c-0.949-0.8-2.077-1.677-3.384-2.631v0l-7.478-5.458c-0.366-0.267-0.721-0.485-1.068-0.655v0l-1.846 1.953c-0.329-0.125-0.673-0.376-1.033-0.753v0c0.823-1.32 1.773-3.021 2.849-5.105v0c0.299-0.037 0.546 0.003 0.74 0.12z" fill="#c9efc7" data-fill-palette-color="primary"></path><path d="M58.262 60.252v0c0.211-0.064 0.466-0.035 0.766 0.089v0c-0.148 0.949 0.185 1.877 1.001 2.782v0c0.722 0.801 1.67 1.112 2.844 0.933 1.174-0.179 2.344-0.795 3.511-1.848v0c1.207-1.088 2.01-2.215 2.411-3.382 0.405-1.162 0.246-2.144-0.477-2.945v0c-0.785-0.87-1.52-1.368-2.206-1.494-0.687-0.125-1.545 0.2-2.576 0.977v0l-5.069 3.803c-0.582 0.399-1.257 0.515-2.027 0.347-0.779-0.168-1.371-0.477-1.776-0.927v0l-0.823-4.3c-1.164 0.26-2.266 0.205-3.308-0.164-1.042-0.361-1.902-0.917-2.58-1.669v0c-1.284-1.424-1.791-3.047-1.522-4.866 0.273-1.815 1.098-3.342 2.473-4.582v0c1.321-1.19 2.799-1.887 4.436-2.089v0c-1.984-2.371-2.203-4.329-0.657-5.875v0c0.529-0.288 1.072-0.123 1.629 0.495v0c0.299 0.331 0.596 0.731 0.893 1.199v0c-0.608 0.638-0.951 1.332-1.028 2.082-0.082 0.755 0.004 1.457 0.259 2.107v0c1.589 0.083 2.95 0.752 4.082 2.008v0c1.19 1.321 1.646 2.9 1.366 4.738-0.28 1.848-1.129 3.411-2.549 4.69v0c-0.752 0.678-1.521 1.187-2.307 1.528v0l1.159 3.002 6.815-4.999c1.076-0.755 2.137-1.065 3.181-0.931 1.044 0.134 1.994 0.676 2.851 1.626v0c1.511 1.677 2.067 3.502 1.667 5.475-0.4 1.983-1.629 3.901-3.686 5.756v0c-1.706 1.538-3.313 2.426-4.82 2.663-1.512 0.242-2.736-0.156-3.672-1.195v0c-0.633-0.702-0.967-1.526-1.003-2.47-0.035-0.954 0.212-1.809 0.742-2.564zM50.216 50.415v0c0.874 0.969 1.89 1.55 3.049 1.742 1.159 0.202 2.191-0.105 3.096-0.921v0c0.885-0.798 1.307-1.792 1.265-2.982-0.042-1.19-0.506-2.277-1.393-3.262v0c-0.967-1.073-2.049-1.712-3.246-1.915-1.201-0.209-2.254 0.095-3.158 0.911v0c-0.851 0.767-1.237 1.765-1.16 2.994 0.082 1.235 0.598 2.379 1.547 3.433z" fill="#c9efc7" data-fill-palette-color="primary"></path><path d="M76.206 40.256v0c0.58 1.019 1.175 1.634 1.785 1.845 0.607 0.206 1.313 0.08 2.118-0.377v0c0.584-0.333 1.133-0.882 1.647-1.65 0.504-0.77 0.866-1.669 1.085-2.697v0l-2.607-4.583c-1.945 1.267-3.286 2.505-4.023 3.713-0.737 1.208-0.739 2.458-0.005 3.749zM79.636 31.743v0l-0.854-1.502c-0.945-1.661-1.822-2.759-2.633-3.293-0.813-0.541-1.66-0.561-2.539-0.061v0c-0.903 0.514-1.462 1.215-1.676 2.103-0.221 0.891-0.034 2.088 0.559 3.588v0c-0.546 0.494-0.967 0.826-1.262 0.994v0c-0.764 0.435-1.369 0.415-1.814-0.059v0c-0.757-1.331-0.782-2.715-0.076-4.151 0.713-1.44 1.929-2.649 3.648-3.627v0c1.898-1.08 3.463-1.461 4.693-1.142 1.234 0.324 2.419 1.485 3.555 3.481v0l4.707 8.273c0.28 0.492 0.549 0.898 0.808 1.218v0l2.48-1.032c0.249 0.249 0.461 0.622 0.638 1.12v0c-1.356 0.848-2.754 1.824-4.195 2.926v0c-0.245-0.067-0.454-0.205-0.626-0.413v0l-1.304-1.948c-0.566 2.789-1.847 4.751-3.843 5.887v0c-1.233 0.701-2.397 0.897-3.494 0.586-1.096-0.311-1.983-1.062-2.661-2.255v0c-1.024-1.8-0.979-3.626 0.135-5.477 1.108-1.849 3.026-3.587 5.754-5.216z" fill="#c9efc7" data-fill-palette-color="primary"></path><path d="M109.955 24.827l-1.721-5.938c-0.484-1.669-1.043-2.772-1.676-3.309-0.636-0.544-1.475-0.664-2.518-0.363v0c-1.599 0.463-2.863 2.13-3.792 4.999v0l3.142 10.839 2.768-0.282c0.19 0.319 0.316 0.754 0.378 1.305v0c-1.383 0.324-2.787 0.693-4.213 1.106v0c-0.991 0.287-2.392 0.718-4.201 1.291v0c-0.247-0.372-0.369-0.794-0.367-1.266v0l2.468-1.1c-0.262-1.214-0.618-2.597-1.069-4.152v0l-2.577-8.892c-0.126-0.435-0.274-0.825-0.444-1.171v0l-2.655 0.416c-0.184-0.3-0.303-0.709-0.356-1.227v0c1.458-0.541 3.25-1.306 5.376-2.297v0c0.259 0.154 0.43 0.336 0.512 0.548v0c0.054 0.594 0.279 1.572 0.674 2.935v0c1.032-2.85 2.615-4.585 4.751-5.204v0c3.351-0.971 5.487 0.132 6.409 3.31v0l3.347 11.549 2.768-0.282c0.19 0.319 0.316 0.754 0.378 1.305v0c-1.383 0.324-2.787 0.693-4.213 1.107v0c-0.991 0.287-2.388 0.717-4.192 1.287v0c-0.253-0.37-0.375-0.792-0.367-1.266v0l2.459-1.097c-0.262-1.214-0.618-2.597-1.069-4.151z" fill="#c9efc7" data-fill-palette-color="primary"></path><path d="M131.556 14.57v0l0.854 10.812 2.767 0.283c0.035 0.111 0.06 0.212 0.074 0.305 0.02 0.085 0.035 0.184 0.044 0.297v0c0.009 0.113 0.012 0.233 0.008 0.36 0.003 0.12-0.004 0.251-0.019 0.392v0c-1.42 0.039-2.869 0.116-4.349 0.233v0c-0.518 0.041-1.141 0.097-1.871 0.168-0.729 0.071-1.564 0.154-2.505 0.248v0c-0.082-0.194-0.132-0.404-0.15-0.63v0c-0.016-0.206-0.001-0.434 0.047-0.684v0l2.639-0.58c-0.01-0.634-0.029-1.303-0.059-2.009-0.036-0.712-0.086-1.469-0.149-2.272v0l-0.567-7.178c-0.117-1.48-0.237-2.576-0.36-3.288v0l-2.685-0.129c-0.055-0.109-0.094-0.296-0.114-0.562v0c-0.009-0.113-0.018-0.226-0.027-0.338-0.009-0.113 0.005-0.237 0.041-0.374v0c1.519-0.213 3.429-0.601 5.728-1.164v0c0.223 0.203 0.353 0.416 0.392 0.641v0c-0.063 0.639 0.024 2.463 0.261 5.469zM125.699 2.94v0c-0.055-0.109-0.088-0.227-0.098-0.353-0.009-0.119-0.019-0.236-0.028-0.348v0c-0.048-0.611 0.165-1.118 0.641-1.523 0.475-0.412 1.084-0.647 1.828-0.706v0c0.69-0.055 1.271 0.107 1.742 0.484 0.471 0.384 0.735 0.934 0.791 1.651v0c0.046 0.584-0.169 1.075-0.645 1.473-0.476 0.398-1.106 0.628-1.889 0.69v0c-0.538 0.042-1.026-0.053-1.465-0.285-0.433-0.24-0.725-0.601-0.877-1.083z" fill="#c9efc7" data-fill-palette-color="primary"></path><path d="M161.482 14.982v0c-0.521 0.441-1.652 0.56-3.391 0.357v0c-0.062-2.858-0.934-4.376-2.616-4.551v0c-1.324-0.139-2.523 0.506-3.597 1.932-1.08 1.427-1.75 3.382-2.01 5.865v0c-0.268 2.556-0.07 4.565 0.594 6.027 0.664 1.462 1.8 2.277 3.409 2.446v0c1.702 0.178 3.443-0.342 5.224-1.561v0c0.317 0.234 0.539 0.609 0.666 1.124v0c-1.819 1.577-3.96 2.236-6.423 1.978v0c-2.351-0.246-4.192-1.263-5.525-3.049-1.327-1.779-1.824-4.248-1.494-7.407v0c0.316-3.02 1.399-5.3 3.247-6.84 1.848-1.534 3.844-2.188 5.99-1.963v0c1.702 0.178 3.157 0.759 4.367 1.743 1.208 0.99 1.728 2.29 1.559 3.899z" fill="#c9efc7" data-fill-palette-color="primary"></path><path d="M209.469 43.752l3.11-5.344c1.574-2.705 1.495-4.561-0.237-5.569v0c-1.479-0.861-3.475-0.655-5.988 0.618v0l-5.776 9.927 2.114 1.808c-0.106 0.354-0.334 0.746-0.684 1.174v0c-1.189-0.777-2.416-1.533-3.682-2.27v0c-0.898-0.522-2.175-1.239-3.833-2.15v0c0.099-0.435 0.32-0.815 0.663-1.139v0l2.49 1.022c0.703-1.023 1.462-2.234 2.276-3.633v0l3.11-5.343c1.574-2.705 1.495-4.561-0.237-5.569v0c-0.875-0.509-1.799-0.689-2.772-0.539-0.973 0.15-2.139 0.585-3.498 1.304v0l-5.641 9.694 2.114 1.808c-0.106 0.354-0.334 0.746-0.683 1.174v0c-1.189-0.777-2.416-1.533-3.683-2.27v0c-0.892-0.519-2.17-1.236-3.833-2.15v0c0.099-0.435 0.32-0.815 0.663-1.14v0l2.499 1.027c0.698-1.027 1.453-2.239 2.268-3.637v0l4.656-8.002c0.228-0.391 0.408-0.768 0.542-1.129v0l-2.134-1.635c0.09-0.34 0.305-0.709 0.643-1.105v0c1.357 0.659 3.139 1.423 5.346 2.291v0c0.068 0.294 0.054 0.543-0.043 0.749v0c-0.393 0.449-0.945 1.287-1.659 2.512v0c2.769-1.224 5.117-1.274 7.045-0.152v0c1.013 0.589 1.787 1.383 2.324 2.381 0.539 1.007 0.612 2.112 0.219 3.317v0c2.782-1.193 5.117-1.24 7.004-0.142v0c1.185 0.69 2.027 1.646 2.526 2.868 0.501 1.231 0.326 2.578-0.525 4.039v0l-6.049 10.393 2.106 1.803c-0.1 0.358-0.328 0.749-0.683 1.174v0c-1.189-0.777-2.413-1.532-3.674-2.265v0c-0.898-0.522-2.175-1.239-3.833-2.15v0c0.099-0.435 0.32-0.815 0.663-1.139v0l2.49 1.021c0.703-1.023 1.462-2.234 2.276-3.632z" fill="#c9efc7" data-fill-palette-color="primary"></path><path d="M231.292 52.934v0l-7.58 7.758 1.609 2.27c-0.06 0.1-0.12 0.185-0.181 0.256-0.051 0.071-0.116 0.147-0.195 0.228v0c-0.079 0.081-0.168 0.162-0.265 0.244-0.089 0.081-0.191 0.162-0.308 0.243v0c-0.963-1.043-1.976-2.084-3.038-3.121v0c-0.371-0.363-0.824-0.795-1.357-1.298-0.533-0.502-1.145-1.077-1.836-1.723v0c0.092-0.189 0.217-0.365 0.376-0.527v0c0.144-0.148 0.326-0.286 0.546-0.416v0l2.172 1.606c0.471-0.425 0.962-0.88 1.475-1.366 0.512-0.496 1.05-1.032 1.612-1.608v0l5.032-5.151c1.038-1.062 1.784-1.874 2.239-2.434v0l-1.67-2.107c0.046-0.114 0.162-0.266 0.347-0.456v0c0.079-0.081 0.158-0.162 0.238-0.243 0.079-0.081 0.182-0.153 0.308-0.215v0c1.161 1.003 2.709 2.186 4.646 3.548v0c-0.006 0.301-0.081 0.54-0.225 0.715v0c-0.523 0.373-1.838 1.639-3.946 3.797zM236.193 40.87v0c0.046-0.114 0.113-0.216 0.201-0.306 0.084-0.086 0.165-0.169 0.245-0.25v0c0.428-0.438 0.951-0.611 1.569-0.52 0.623 0.087 1.2 0.391 1.733 0.912v0c0.495 0.484 0.756 1.027 0.782 1.63 0.021 0.607-0.219 1.168-0.722 1.682v0c-0.409 0.419-0.921 0.58-1.534 0.484-0.613-0.096-1.201-0.419-1.762-0.968v0c-0.386-0.377-0.636-0.807-0.75-1.291-0.105-0.484-0.025-0.941 0.238-1.373z" fill="#c9efc7" data-fill-palette-color="primary"></path><path d="M243.335 79.5l5.129-3.45c1.442-0.97 2.322-1.839 2.64-2.607 0.324-0.771 0.183-1.607-0.423-2.507v0c-0.929-1.381-2.901-2.077-5.917-2.087v0l-9.364 6.299 1.113 2.55c-0.246 0.278-0.622 0.531-1.127 0.758v0c-0.731-1.218-1.511-2.442-2.339-3.675v0c-0.576-0.856-1.413-2.059-2.511-3.607v0c0.279-0.348 0.644-0.594 1.094-0.736v0l1.8 2.015c1.076-0.619 2.285-1.381 3.628-2.284v0l7.682-5.167c0.376-0.253 0.702-0.513 0.98-0.78v0l-1.207-2.402c0.23-0.267 0.583-0.505 1.061-0.713v0c0.96 1.224 2.235 2.697 3.827 4.419v0c-0.067 0.294-0.189 0.512-0.366 0.655v0c-0.549 0.233-1.412 0.745-2.589 1.537v0c3.029 0.113 5.164 1.092 6.405 2.937v0c1.947 2.895 1.548 5.266-1.197 7.113v0l-9.977 6.711 1.113 2.55c-0.246 0.278-0.622 0.531-1.127 0.758v0c-0.731-1.218-1.511-2.442-2.34-3.675v0c-0.576-0.856-1.411-2.056-2.505-3.599v0c0.276-0.354 0.64-0.599 1.094-0.735v0l1.795 2.006c1.076-0.619 2.285-1.381 3.628-2.284z" fill="#c9efc7" data-fill-palette-color="primary"></path><path d="M271.468 104.248l-15.618 5.677c-1.414 0.514-2.398 0.907-2.951 1.179v0l0.601 2.619c-0.321 0.188-0.725 0.334-1.211 0.44v0c-0.624-1.523-1.356-3.078-2.195-4.664v0c0.089-0.203 0.251-0.382 0.485-0.538v0l1.969-0.896c-1.132-0.424-2.158-1.093-3.077-2.006-0.92-0.913-1.598-1.97-2.035-3.171v0c-0.671-1.846-0.458-3.648 0.638-5.407 1.094-1.765 2.924-3.114 5.49-4.046v0c2.96-1.076 5.621-1.151 7.984-0.224 2.357 0.929 3.934 2.491 4.732 4.687v0c0.632 1.74 0.738 3.306 0.316 4.699v0l4.252-1.545c1.395-0.507 2.42-0.915 3.073-1.224v0l-0.592-2.622c0.29-0.197 0.69-0.343 1.202-0.436v0c0.639 1.426 1.523 3.166 2.652 5.22v0c-0.138 0.263-0.309 0.445-0.513 0.548v0c-0.589 0.094-2.323 0.664-5.202 1.71zM264.48 98.266v0c-0.5-1.377-1.625-2.211-3.375-2.503-1.746-0.301-3.901 0.015-6.467 0.948v0c-2.09 0.76-3.546 1.725-4.368 2.894-0.819 1.176-0.999 2.396-0.539 3.661v0c0.277 0.763 0.82 1.516 1.627 2.256 0.805 0.734 1.745 1.264 2.82 1.589v0l10.156-3.692c0.814-1.465 0.862-3.183 0.146-5.153z" fill="#c9efc7" data-fill-palette-color="primary"></path><path d="M2.817 144.338c0-5.813 4.713-10.526 10.526-10.526 5.813 0 10.526 4.713 10.526 10.526 0 5.813-4.713 10.526-10.526 10.526-5.813 0-10.526-4.713-10.526-10.526z" fill="#c9efc7" data-fill-palette-color="primary"></path><path d="M254.5 144.338c0-5.813 4.713-10.526 10.526-10.526 5.813 0 10.526 4.713 10.525 10.526 0 5.813-4.713 10.526-10.525 10.526-5.813 0-10.526-4.713-10.526-10.526z" fill="#c9efc7" data-fill-palette-color="primary"></path></g><g id="text-1"><path d="M39.768 184.681v0c0.772 2.036 1.102 4.001 0.988 5.896-0.11 1.886-0.583 3.558-1.419 5.014-0.836 1.457-1.894 2.731-3.175 3.822-1.287 1.094-2.737 1.946-4.349 2.559v0c-3.735 1.417-7.332 1.444-10.792 0.078-3.468-1.369-5.89-3.868-7.267-7.497v0c-0.763-2.011-1.087-3.963-0.973-5.858 0.114-1.895 0.589-3.571 1.425-5.027 0.83-1.454 1.882-2.726 3.156-3.815 1.275-1.089 2.709-1.936 4.302-2.541v0c2.384-0.905 4.794-1.217 7.229-0.938 2.426 0.276 4.622 1.137 6.589 2.585 1.96 1.45 3.389 3.357 4.286 5.722zM15.462 193.873v0c0.739 1.948 1.93 3.387 3.571 4.317 1.65 0.933 3.446 1.367 5.386 1.3 1.949-0.063 3.981-0.496 6.098-1.299v0c2.011-0.763 3.697-1.741 5.06-2.935 1.365-1.188 2.305-2.652 2.82-4.393 0.515-1.741 0.399-3.594-0.348-5.561v0c-1.08-2.845-2.935-4.608-5.565-5.291-2.639-0.686-5.512-0.44-8.618 0.738v0c-2.141 0.813-3.958 1.833-5.45 3.062-1.49 1.235-2.537 2.736-3.141 4.504-0.608 1.776-0.546 3.629 0.187 5.558z" fill="#8abe53" data-fill-palette-color="secondary"></path><path d="M44.879 214.199v0l-2.813 1.958c1.149-0.152 2.362-0.079 3.641 0.218 1.269 0.296 2.163 0.802 2.684 1.519v0c0.407 0.56 0.703 1.098 0.889 1.613v0c-0.131 0.318-0.385 0.614-0.763 0.888v0c-0.592 0.431-1.277 0.735-2.053 0.912v0c-0.283-0.774-0.639-1.457-1.07-2.05v0c-1.073-1.476-2.672-2.165-4.799-2.067v0l-4.751 3.367-4.064 2.953 1.769 3.283c-0.235 0.277-0.593 0.538-1.075 0.781v0c-0.768-1.17-1.681-2.482-2.737-3.937v0c-0.795-1.093-1.759-2.38-2.893-3.86v0c0.261-0.354 0.611-0.609 1.05-0.764v0l1.843 1.908c1.04-0.641 2.207-1.431 3.5-2.371v0l7.376-5.361c0.355-0.258 0.667-0.526 0.935-0.803v0l-1.284-2.327c0.218-0.266 0.56-0.514 1.026-0.746v0c0.992 1.172 2.302 2.578 3.93 4.218v0c-0.06 0.291-0.174 0.513-0.341 0.668z" fill="#8abe53" data-fill-palette-color="secondary"></path><path d="M45.519 242.353v0c0.09 0.198 0.089 0.448-0.005 0.75v0c-0.945-0.047-1.82 0.375-2.623 1.263v0c-0.714 0.79-0.928 1.751-0.64 2.882 0.297 1.131 1.022 2.216 2.173 3.257v0c1.185 1.072 2.37 1.747 3.553 2.027 1.183 0.28 2.132 0.025 2.846-0.766v0c0.772-0.854 1.186-1.625 1.241-2.311 0.055-0.686-0.351-1.493-1.218-2.421v0l-4.241-4.601c-0.451-0.524-0.632-1.173-0.544-1.946 0.088-0.773 0.333-1.382 0.735-1.826v0l4.131-1.247c-0.367-1.113-0.427-2.199-0.179-3.258 0.253-1.055 0.715-1.952 1.385-2.693v0c1.264-1.398 2.802-2.058 4.616-1.98 1.81 0.083 3.389 0.734 4.737 1.954v0c1.299 1.174 2.13 2.554 2.493 4.138v0c2.124-2.181 4.02-2.59 5.687-1.227v0c0.34 0.487 0.236 1.035-0.313 1.642v0c-0.299 0.331-0.662 0.663-1.089 0.995v0c-0.687-0.531-1.403-0.797-2.147-0.797-0.745 0-1.423 0.154-2.034 0.463v0c0.079 1.57-0.439 2.973-1.556 4.208v0c-1.174 1.299-2.678 1.905-4.511 1.819-1.838-0.091-3.456-0.769-4.855-2.033v0c-0.741-0.67-1.318-1.371-1.732-2.104v0l-2.82 1.436 5.587 6.181c0.851 0.975 1.262 1.98 1.234 3.014-0.028 1.043-0.465 2.034-1.314 2.972v0c-1.487 1.645-3.22 2.371-5.201 2.179-1.98-0.192-3.983-1.204-6.007-3.035v0c-1.679-1.518-2.711-3.003-3.096-4.454-0.389-1.456-0.122-2.695 0.803-3.718v0c0.625-0.691 1.401-1.103 2.327-1.234 0.927-0.132 1.786 0.025 2.577 0.471zM54.355 233.472v0c-0.862 0.953-1.332 2.009-1.41 3.168-0.074 1.154 0.334 2.133 1.223 2.936v0c0.874 0.79 1.892 1.104 3.053 0.943 1.166-0.158 2.186-0.721 3.061-1.689v0c0.951-1.052 1.467-2.179 1.548-3.38 0.081-1.201-0.323-2.204-1.212-3.008v0c-0.84-0.759-1.86-1.035-3.061-0.829-1.197 0.202-2.264 0.821-3.202 1.859z" fill="#8abe53" data-fill-palette-color="secondary"></path><path d="M71.557 256.385v0c-0.571 1-0.793 1.813-0.666 2.437 0.13 0.618 0.591 1.154 1.383 1.606v0c0.578 0.33 1.321 0.52 2.228 0.569 0.904 0.041 1.85-0.106 2.838-0.439v0l2.568-4.502c-2.055-1.019-3.779-1.539-5.17-1.559-1.395-0.014-2.455 0.615-3.181 1.888zM80.502 255.015v0l0.841-1.475c0.934-1.637 1.425-2.935 1.475-3.895 0.046-0.955-0.364-1.68-1.231-2.175v0c-0.891-0.508-1.767-0.632-2.628-0.372-0.864 0.266-1.784 1.025-2.76 2.277v0c-0.689-0.217-1.178-0.408-1.467-0.572v0c-0.752-0.429-1.041-0.95-0.867-1.564v0c0.746-1.307 1.906-2.025 3.482-2.153 1.578-0.119 3.214 0.305 4.909 1.271v0c1.868 1.066 2.975 2.203 3.32 3.412 0.349 1.203-0.038 2.788-1.16 4.754v0l-4.652 8.154c-0.274 0.48-0.481 0.91-0.621 1.29v0l2.118 1.588c-0.084 0.335-0.293 0.703-0.628 1.102v0c-1.398-0.721-2.93-1.415-4.596-2.082v0c-0.061-0.242-0.046-0.49 0.045-0.744v0l0.991-2.08c-2.642 0.923-4.946 0.823-6.913-0.298v0c-1.214-0.693-1.965-1.581-2.251-2.665-0.292-1.087-0.102-2.22 0.571-3.399v0c1.01-1.77 2.58-2.648 4.712-2.636 2.122 0.015 4.559 0.769 7.31 2.262z" fill="#8abe53" data-fill-palette-color="secondary"></path><path d="M107.941 270.022l1.703-5.85c0.476-1.637 0.593-2.847 0.35-3.632-0.241-0.791-0.873-1.336-1.896-1.634v0c-1.579-0.46-3.512 0.261-5.799 2.161v0l-3.107 10.673 2.45 1.233c-0.016 0.363-0.139 0.788-0.371 1.275v0c-1.324-0.455-2.689-0.887-4.096-1.296v0c-0.978-0.285-2.369-0.665-4.171-1.141v0c-0.011-0.44 0.11-0.855 0.362-1.247v0l2.626 0.38c0.43-1.144 0.868-2.483 1.315-4.018v0l2.548-8.755c0.123-0.422 0.205-0.824 0.247-1.207v0l-2.439-1.053c0.01-0.344 0.128-0.75 0.354-1.218v0c1.502 0.319 3.399 0.629 5.69 0.928v0c0.13 0.267 0.177 0.513 0.139 0.737v0c-0.269 0.518-0.598 1.448-0.989 2.791v0c2.357-1.831 4.59-2.44 6.7-1.825v0c3.305 0.962 4.502 3.009 3.59 6.141v0l-3.311 11.373 2.45 1.233c-0.016 0.363-0.139 0.788-0.371 1.276v0c-1.324-0.455-2.689-0.887-4.096-1.296v0c-0.985-0.287-2.375-0.667-4.171-1.142v0c-0.011-0.44 0.11-0.855 0.362-1.246v0l2.626 0.379c0.424-1.146 0.859-2.486 1.305-4.02z" fill="#8abe53" data-fill-palette-color="secondary"></path><path d="M131.985 267.312v0l-0.848 10.652 2.649 0.712c0.011 0.114 0.02 0.215 0.026 0.303 0.006 0.087 0.005 0.187-0.004 0.3v0c-0.009 0.113-0.025 0.228-0.048 0.347-0.023 0.118-0.049 0.243-0.079 0.374v0c-1.389-0.177-2.813-0.324-4.274-0.44v0c-0.504-0.04-1.119-0.082-1.843-0.127-0.718-0.044-1.542-0.093-2.473-0.146v0c-0.051-0.204-0.067-0.416-0.05-0.636v0c0.016-0.199 0.067-0.419 0.153-0.659v0l2.648-0.16c0.096-0.614 0.181-1.268 0.256-1.963 0.082-0.695 0.155-1.44 0.218-2.237v0l0.562-7.069c0.116-1.454 0.169-2.538 0.159-3.253v0l-2.602-0.538c-0.031-0.116-0.036-0.307-0.015-0.572v0c0.009-0.113 0.018-0.222 0.027-0.328 0.009-0.113 0.039-0.234 0.089-0.364v0c1.514 0.034 3.434-0.047 5.76-0.243v0c0.182 0.235 0.277 0.466 0.285 0.694v0c-0.162 0.608-0.361 2.393-0.596 5.353zM128.088 255.089v0c-0.037-0.117-0.051-0.235-0.042-0.354 0.01-0.119 0.019-0.236 0.028-0.348v0c0.048-0.597 0.335-1.059 0.861-1.384 0.527-0.325 1.155-0.459 1.886-0.401v0c0.684 0.054 1.225 0.304 1.623 0.75 0.399 0.439 0.571 1.014 0.514 1.724v0c-0.046 0.577-0.332 1.022-0.857 1.334-0.526 0.312-1.174 0.438-1.944 0.377v0c-0.531-0.042-0.992-0.212-1.382-0.511-0.39-0.298-0.619-0.694-0.687-1.187z" fill="#8abe53" data-fill-palette-color="secondary"></path><path d="M160.441 264.67v0c-0.413 0.532-1.481 0.879-3.205 1.039v0c-0.643-2.744-1.792-4.029-3.448-3.856v0c-1.304 0.137-2.331 1.005-3.08 2.604-0.743 1.591-0.986 3.612-0.729 6.061v0c0.264 2.516 0.865 4.411 1.802 5.686 0.937 1.274 2.2 1.828 3.789 1.66v0c1.675-0.176 3.246-1.034 4.711-2.573v0c0.352 0.164 0.643 0.481 0.873 0.953v0c-1.428 1.891-3.358 2.964-5.788 3.218v0c-2.318 0.243-4.299-0.359-5.943-1.806-1.645-1.447-2.63-3.724-2.957-6.829v0c-0.313-2.98 0.263-5.4 1.728-7.261 1.465-1.861 3.257-2.903 5.376-3.126v0c1.675-0.176 3.196 0.089 4.562 0.797 1.372 0.699 2.142 1.844 2.309 3.433z" fill="#8abe53" data-fill-palette-color="secondary"></path><path d="M212.706 250.549l-3.069-5.263c-1.553-2.663-3.181-3.498-4.884-2.504v0c-1.455 0.849-2.248 2.66-2.379 5.435v0l5.701 9.774 2.581-0.928c0.253 0.261 0.476 0.644 0.669 1.148v0c-1.241 0.647-2.486 1.335-3.734 2.062v0c-0.88 0.513-2.113 1.26-3.7 2.24v0c-0.326-0.295-0.544-0.669-0.654-1.122v0l2.083-1.643c-0.533-1.099-1.203-2.339-2.008-3.719v0l-3.07-5.262c-1.553-2.663-3.184-3.496-4.892-2.5v0c-0.863 0.503-1.465 1.209-1.806 2.117-0.341 0.908-0.533 2.119-0.576 3.631v0l5.566 9.541 2.581-0.927c0.253 0.261 0.476 0.644 0.669 1.147v0c-1.241 0.647-2.486 1.335-3.734 2.063v0c-0.88 0.513-2.113 1.26-3.7 2.239v0c-0.326-0.295-0.544-0.669-0.654-1.121v0l2.082-1.643c-0.533-1.099-1.203-2.339-2.007-3.719v0l-4.595-7.877c-0.221-0.38-0.457-0.717-0.705-1.01v0l-2.444 1.043c-0.243-0.244-0.456-0.609-0.639-1.095v0c1.231-0.849 2.753-2.007 4.565-3.472v0c0.283 0.089 0.491 0.226 0.622 0.411v0c0.197 0.548 0.647 1.426 1.352 2.634v0c0.295-2.97 1.391-5.009 3.289-6.115v0c0.995-0.58 2.051-0.857 3.168-0.831 1.127 0.029 2.112 0.502 2.957 1.42v0c0.322-2.963 1.412-4.986 3.269-6.069v0c1.173-0.684 2.407-0.942 3.701-0.772 1.294 0.17 2.36 0.974 3.199 2.412v0l5.968 10.231 2.581-0.927c0.253 0.261 0.476 0.644 0.669 1.147v0c-1.241 0.647-2.486 1.335-3.734 2.063v0c-0.88 0.513-2.113 1.26-3.7 2.239v0c-0.326-0.295-0.544-0.669-0.654-1.121v0l2.083-1.643c-0.539-1.096-1.211-2.334-2.017-3.714z" fill="#8abe53" data-fill-palette-color="secondary"></path><path d="M226.588 230.816v0l7.474 7.637 2.277-1.529c0.093 0.067 0.175 0.127 0.245 0.179 0.07 0.053 0.145 0.119 0.224 0.2v0c0.079 0.081 0.156 0.169 0.23 0.264 0.074 0.095 0.151 0.197 0.23 0.306v0c-1.046 0.93-2.092 1.908-3.139 2.933v0c-0.362 0.354-0.797 0.789-1.307 1.306-0.505 0.512-1.083 1.102-1.735 1.768v0c-0.187-0.096-0.358-0.223-0.511-0.379v0c-0.14-0.143-0.272-0.325-0.397-0.548v0l1.619-2.102c-0.4-0.475-0.837-0.97-1.312-1.483-0.47-0.518-0.984-1.063-1.543-1.634v0l-4.96-5.068c-1.02-1.042-1.803-1.794-2.349-2.257v0l-2.115 1.609c-0.108-0.053-0.255-0.175-0.441-0.365v0c-0.079-0.081-0.156-0.159-0.23-0.235-0.079-0.081-0.151-0.183-0.216-0.306v0c1.02-1.119 2.22-2.62 3.601-4.503v0c0.296 0.017 0.533 0.098 0.711 0.241v0c0.352 0.522 1.567 1.844 3.644 3.966zM214.813 225.724v0c-0.112-0.048-0.211-0.115-0.294-0.201-0.084-0.086-0.165-0.169-0.245-0.249v0c-0.419-0.428-0.578-0.948-0.478-1.559 0.101-0.611 0.413-1.173 0.937-1.685v0c0.49-0.48 1.034-0.723 1.632-0.731 0.593-0.012 1.139 0.236 1.637 0.745v0c0.405 0.414 0.553 0.922 0.443 1.523-0.11 0.601-0.441 1.172-0.993 1.713v0c-0.381 0.373-0.812 0.608-1.293 0.706-0.481 0.098-0.93 0.011-1.346-0.262z" fill="#8abe53" data-fill-palette-color="secondary"></path><path d="M248.77 212.7l-5.06-3.394c-1.416-0.949-2.534-1.427-3.356-1.433-0.827-0.01-1.538 0.428-2.131 1.313v0c-0.916 1.366-0.815 3.426 0.305 6.181v0l9.232 6.191 1.916-1.961c0.341 0.125 0.709 0.371 1.103 0.739v0c-0.834 1.124-1.659 2.295-2.474 3.511v0c-0.567 0.846-1.351 2.056-2.351 3.631v0c-0.423-0.123-0.782-0.364-1.078-0.723v0l1.156-2.387c-0.96-0.756-2.104-1.579-3.431-2.47v0l-7.573-5.078c-0.365-0.245-0.724-0.445-1.076-0.602v0l-1.742 2.007c-0.325-0.114-0.676-0.349-1.054-0.707v0c0.759-1.335 1.628-3.049 2.607-5.142v0c0.294-0.044 0.542-0.013 0.745 0.091v0c0.413 0.413 1.199 1.009 2.361 1.787v0c-1.032-2.8-0.936-5.113 0.287-6.938v0c1.917-2.859 4.231-3.38 6.941-1.562v0l9.837 6.597 1.917-1.962c0.341 0.125 0.709 0.371 1.103 0.74v0c-0.834 1.124-1.659 2.295-2.475 3.511v0c-0.571 0.852-1.355 2.062-2.35 3.631v0c-0.423-0.123-0.782-0.364-1.079-0.723v0l1.156-2.388c-0.964-0.751-2.109-1.571-3.436-2.46z" fill="#8abe53" data-fill-palette-color="secondary"></path><path d="M248.568 176.069l15.401 5.575c1.396 0.505 2.387 0.829 2.973 0.97v0l1.204-2.358c0.361 0.06 0.758 0.204 1.193 0.432v0c-0.488 1.544-0.915 3.184-1.282 4.921v0c-0.202 0.09-0.44 0.12-0.714 0.092v0l-2.058-0.564c0.595 1.037 0.95 2.188 1.065 3.455 0.119 1.275-0.037 2.508-0.467 3.697v0c-0.657 1.816-1.957 3.041-3.901 3.675-1.939 0.643-4.171 0.508-6.694-0.404v0c-2.924-1.058-4.984-2.682-6.181-4.872-1.203-2.192-1.412-4.374-0.626-6.546v0c0.619-1.709 1.531-2.958 2.737-3.747v0l-4.198-1.519c-1.371-0.496-2.403-0.834-3.095-1.014v0l-1.204 2.357c-0.342-0.032-0.74-0.176-1.193-0.431v0c0.415-1.478 0.845-3.351 1.291-5.619v0c0.275-0.113 0.522-0.14 0.741-0.082v0c0.502 0.295 2.171 0.956 5.008 1.982zM250.08 185.007v0c-0.492 1.359-0.171 2.703 0.962 4.034 1.133 1.331 2.964 2.454 5.493 3.369v0c2.066 0.748 3.779 0.936 5.138 0.564 1.36-0.372 2.266-1.184 2.719-2.436v0c0.272-0.751 0.335-1.66 0.19-2.724-0.145-1.065-0.521-2.062-1.127-2.989v0l-10.011-3.624c-1.54 0.597-2.661 1.865-3.364 3.806z" fill="#8abe53" data-fill-palette-color="secondary"></path></g></svg></g></svg></g></svg></g></svg></g><defs></defs></svg><rect width="280" height="280" fill="none" stroke="none" visibility="hidden"></rect></g></svg></g></svg>